<svg xmlns="http://www.w3.org/2000/svg" width="32px" height="32px" viewBox="0 0 88.22768088638884 93.60000000000001" fill="#FD923A">
    <g>
        <polygon points="54.644,56.782 35.043,56.782 29.789,76.381 49.394,76.381" />
    </g>
    <g>
        <polygon points="29.789,76.381 16.071,76.381 12.394,90.102 26.115,90.102" />
    </g>
    <g>
        <polygon points="72.04,43.063 58.319,43.063 54.644,56.782 68.363,56.782" />
    </g>
    <g>
        <polygon points="60.892,33.458 51.288,33.458 48.716,43.063 58.319,43.063" />
    </g>
    <g>
        <polygon points="78.988,17.134 69.384,17.134 66.81,26.739 76.416,26.739" />
    </g>
    <g>
        <polygon points="37.616,47.18 28.013,47.18 25.438,56.782 35.043,56.782" />
    </g>
    <g>
        <polygon points="87.511,10.411 80.79,10.411 78.988,17.134 85.71,17.134" />
    </g>
    <g>
        <polygon points="80.562,36.341 73.842,36.341 72.04,43.063 78.762,43.063" />
    </g>
    <g>
        <polygon points="53.089,26.735 46.37,26.735 44.565,33.458 51.288,33.458" />
    </g>
</svg>