<!-- Copyright 2000-2021 JetBrains s.r.o. Use of this source code is governed by the Apache 2.0 license that can be found in the LICENSE file. -->
<svg xmlns="http://www.w3.org/2000/svg" width="16" height="16" viewBox="0 0 16 16">
  <g fill="none" fill-rule="evenodd">
    <polygon fill="#f0ab4e" fill-opacity=".9" points="1 16 16 16 16 9 1 9"/>
    <polygon fill="#9AA7B0" fill-opacity=".8" points="7 1 3 5 7 5"/>
    <polygon fill="#9AA7B0" fill-opacity=".8" points="8 1 8 6 3 6 3 8 13 8 13 1"/>

    <path stroke="#231f20" stroke-opacity=".7" d="M6 10.48770752h1 M5 11.48770752h1 M4 12.48770752h1 M5 13.48770752h1 M6 14.48770752h1" />
    <path stroke="#6d5c45" stroke-opacity=".7" d="M5 10.48770752h1 M5 12.48770752h1 M5 14.48770752h1" />
    <path stroke="#e6a54d" stroke-opacity="1" d="M4 11.48770752h1 M4 13.48770752h1" />

    <path stroke="#231f20" stroke-opacity=".7" d="M10 10.48770752h1 M11 11.48770752h1 M12 12.48770752h1 M11 13.48770752h1 M10 14.48770752h1" />
    <path stroke="#6d5c45" stroke-opacity=".7" d="M11 10.48770752h1 M11 12.48770752h1 M11 14.48770752h1" />
    <path stroke="#e6a54d" stroke-opacity=".9" d="M12 11.48770752h1 M12 13.48770752h1" />
  </g>
</svg>
