<!-- Copyright 2000-2021 JetBrains s.r.o. Use of this source code is governed by the Apache 2.0 license that can be found in the LICENSE file. -->
<svg xmlns="http://www.w3.org/2000/svg" width="16" height="16" viewBox="0 0 16 16">
  <g fill="none" fill-rule="evenodd">
    <polygon fill="#40B6E0" fill-opacity=".7" points="1 16 16 16 16 9 1 9"/>
    <polygon fill="#9AA7B0" fill-opacity=".8" points="7 1 3 5 7 5"/>
    <polygon fill="#9AA7B0" fill-opacity=".8" points="8 1 8 6 3 6 3 8 13 8 13 1"/>
    <path stroke="#231f20" stroke-opacity=".7" d="M2 10.48770752h1 M3 10.48770752h1 M4 10.48770752h1 M2 11.48770752h1 M4 11.48770752h1 M2 12.48770752h1 M4 12.48770752h1 M2 13.48770752h1 M4 13.48770752h1 M2 14.48770752h1 M4 14.48770752h1" />
    <path stroke="#231f20" stroke-opacity=".7" d="M6 10.48770752h1 M7 10.48770752h1 M6 11.48770752h1 M6 12.48770752h1 M7 12.48770752h1 M6 13.48770752h1 M6 13.48770752h1 M6 14.48770752h1 M7 14.48770752h1" />
    <path stroke="#231f20" stroke-opacity=".7" d="M9 10.48770752h1 M10 10.48770752h1 M11 10.48770752h1 M9 11.48770752h1 M11 11.48770752h1 M9 12.48770752h1 M11 12.48770752h1 M9 13.48770752h1 M11 13.48770752h1 M9 14.48770752h1 M10 14.48770752h1 M11 14.48770752h1" />
    <path stroke="#231f20" stroke-opacity=".7" d="M13 10.48770752h1 M14 10.48770752h1 M15 10.48770752h1 M13 11.48770752h1 M15 11.48770752h1 M13 12.48770752h1 M15 12.48770752h1 M13 13.48770752h1 M15 13.48770752h1 M13 14.48770752h1 M15 14.48770752h1" />
  </g>
</svg>
